<svg width="231" height="109" viewBox="0 0 231 109" fill="none" xmlns="http://www.w3.org/2000/svg">
<g clip-path="url(#clip0_518_984)">
<path fill-rule="evenodd" clip-rule="evenodd" d="M28.1935 49.6205L42.7414 9.15009C43.7086 6.45897 46.606 5.60906 49.1201 5.06014C51.8133 4.47191 54.5796 4.15952 57.324 3.92757C65.0388 3.27513 72.9372 3.3542 80.6355 4.18009C89.8377 5.16755 101.456 7.60366 108.692 13.9004C116.307 10.9737 124.05 8.53854 131.983 6.61184C140.886 4.44976 149.906 2.9472 158.989 1.77646C169.944 0.364623 181.131 -0.403463 192.173 0.217214C204.912 0.933416 226.095 4.18535 229.644 19.0868C233.469 35.138 213.247 51.4999 201.718 59.5365C191.093 66.9434 179.585 73.1815 167.859 78.6591C154.001 85.133 139.648 90.5751 125.047 95.1286C110.573 99.6416 95.7962 103.303 80.8359 105.794C68.4167 107.862 55.7131 109.194 43.1107 108.977C29.4063 108.741 4.36929 106.267 0.474741 89.9199C-3.31757 74.0026 16.5023 57.8101 28.1935 49.6205Z" fill="#FEFEFE"/>
<path d="M69.0552 26.0974L69.5524 24.2101L81.26 22.2031L68.88 49.5646C68.657 50.1195 68.5415 50.4268 68.5257 50.4867C68.4177 50.8967 68.5346 51.1017 68.8765 51.1017C69.0732 51.1017 69.3518 51.0502 69.6927 50.9563L71.1274 50.5381L70.6121 52.4936L63.3003 53.9708C62.238 54.1758 61.6469 54.2783 61.5272 54.2783C60.7409 54.2783 60.447 53.9027 60.6451 53.1511C60.762 52.7071 60.9122 52.3314 61.0959 52.0238L63.5636 47.3611C61.4419 48.958 59.8591 50.0683 58.8315 50.6917C54.7829 53.1168 51.4209 54.3295 48.7374 54.3295C47.874 54.3295 47.3011 54.2016 47.0205 53.9368C46.7397 53.6722 46.682 53.211 46.8572 52.5448C47.0216 51.9214 47.4059 50.9821 48.0124 49.7181L57.8655 28.8642C58.0578 28.3944 58.1775 28.0699 58.2269 27.8823C58.5847 26.5244 58.1299 25.8498 56.8567 25.8498C56.4464 25.8498 56.1258 25.8666 55.8795 25.8925L54.4411 26.0974L54.9383 24.2101L67.1073 22.2031L55.6722 46.9514L55.2805 47.8223C55.0428 48.3346 54.8837 48.7446 54.8025 49.052C54.6587 49.5987 54.9091 49.8804 55.5586 49.8804C56.097 49.8804 56.6138 49.7351 57.113 49.462C58.8013 48.6336 60.5943 47.4722 62.4839 45.9779C64.3864 44.4321 66.2202 41.8189 67.9828 38.1467L72.4798 28.8642C72.654 28.4627 72.7736 28.1382 72.8408 27.8823C73.1988 26.5244 72.7272 25.8498 71.4364 25.8498C71.0607 25.8498 70.7313 25.8666 70.4425 25.8925L69.0552 26.0974Z" fill="#2B2A29"/>
<path d="M81.172 48.6357H78.9085L76.4557 53.7942L73.5391 54.3281L77.4807 46.0438C77.5649 45.8361 77.6244 45.6754 77.6543 45.5609C77.7437 45.222 77.6655 45.0527 77.4112 45.0527C77.034 45.0527 76.5168 45.5353 75.8565 46.4969H74.6656C75.1763 45.781 75.7483 45.1541 76.3841 44.6079C77.0229 44.0657 77.6715 43.6465 78.3379 43.3542C79.0071 43.0664 79.6395 42.918 80.2326 42.918C81.0633 42.918 81.4141 43.1636 81.2847 43.655C81.2668 43.7226 81.2094 43.8922 81.1031 44.1676L79.5308 47.4161H81.7476L83.6913 43.3204L86.4289 42.969L82.3477 51.7825C82.1858 52.1553 82.0873 52.401 82.055 52.5239C81.9745 52.8287 82.129 52.9811 82.5149 52.9811C82.5998 52.9811 82.7991 52.9643 83.1132 52.9305L84.0545 52.7526L83.6834 53.6631L80.8257 54.0994L80.1855 54.1967C79.934 54.2348 79.7174 54.2518 79.5395 54.2518C79.2174 54.2518 79.0126 54.2094 78.9128 54.1203C78.8177 54.0317 78.8008 53.8706 78.8611 53.6418L78.9012 53.4894L81.172 48.6357Z" fill="#2B2A29"/>
<path d="M93.6208 45.5863H92.7821L92.9067 45.3069C93.0204 45.0018 93.091 44.7986 93.1167 44.7012C93.2257 44.2903 93.0919 44.0872 92.7197 44.0872C92.3888 44.0872 92.0552 44.3242 91.7178 44.7986C91.4706 45.1587 91.0314 45.9888 90.4019 47.2847C89.1269 49.9994 88.4032 51.6683 88.2379 52.2951C88.1811 52.5111 88.1677 52.6594 88.2024 52.7355C88.2333 52.8118 88.3251 52.85 88.4776 52.85C88.9228 52.85 89.5474 52.6508 90.3625 52.2442L89.7411 53.5404C88.954 53.7607 88.382 53.9045 88.0281 53.9767C86.9413 54.1926 86.145 54.3027 85.6321 54.3027C84.9839 54.3027 84.7287 54.0487 84.8627 53.5404C84.8581 53.5573 84.9617 53.2607 85.1719 52.6551C86.2219 50.1182 87.1454 48.2377 87.9312 47.0096C88.7271 45.7259 89.6206 44.7477 90.6118 44.0744C91.5979 43.4053 92.6363 43.0664 93.7262 43.0664C94.4376 43.0664 94.7492 43.2357 94.6603 43.5746C94.5952 43.8202 94.2497 44.4895 93.6208 45.5863Z" fill="#2B2A29"/>
<path d="M95.9393 53.796L93.0078 54.3046L96.6341 46.5242C96.8523 46.0838 96.9944 45.7363 97.0595 45.4907C97.1273 45.2323 97.0677 45.1054 96.8807 45.1054C96.6864 45.1054 96.4435 45.2535 96.1474 45.5586C95.8476 45.8591 95.5461 46.2785 95.2362 46.812H94.117C94.5313 46.126 95.0492 45.4948 95.6744 44.923C96.2987 44.3556 96.9476 43.9025 97.6296 43.5679C98.3098 43.2375 98.935 43.0681 99.5033 43.0681C100.283 43.0681 100.596 43.3601 100.444 43.9366C100.353 44.2836 100.093 44.8849 99.6628 45.7449C100.51 44.8129 101.173 44.1776 101.662 43.8346C102.391 43.3222 103.254 43.0681 104.254 43.0681C105.034 43.0681 105.352 43.3601 105.199 43.9366C105.109 44.2836 104.848 44.8849 104.418 45.7449C104.548 45.5922 104.71 45.4102 104.913 45.2028C105.46 44.6223 105.962 44.1651 106.418 43.8346C107.222 43.3097 108.062 43.0469 108.939 43.0469C109.91 43.0469 110.299 43.407 110.106 44.1353C110.043 44.3769 109.957 44.6057 109.844 44.8257L109.335 45.8931L106.603 51.7377L106.352 52.1953C106.312 52.28 106.274 52.3902 106.239 52.5257C106.177 52.7586 106.281 52.8771 106.557 52.8771C106.756 52.8771 106.98 52.8349 107.221 52.7545L107.877 52.5977L107.653 53.4446L104.665 54.0757C104.249 54.1563 103.831 54.1985 103.407 54.1985C102.954 54.1985 102.772 54.0207 102.866 53.6648C102.913 53.4828 103.025 53.2201 103.196 52.8771L106.356 46.3041C106.602 45.804 106.739 45.5076 106.766 45.4103C106.86 45.0545 106.753 44.8767 106.453 44.8767C106.058 44.8767 105.497 45.3001 104.766 46.1471C104.208 46.7698 103.605 47.7525 102.951 49.095L100.695 53.796L97.923 54.2792L101.658 46.2785C101.837 45.9057 101.959 45.605 102.017 45.3847C102.106 45.046 102.002 44.8767 101.697 44.8767C101.307 44.8767 100.75 45.3001 100.015 46.1471C99.4346 46.8207 98.8277 47.8032 98.1952 49.095L95.9393 53.796Z" fill="#2B2A29"/>
<path d="M106.922 60.2L113.295 46.1471L113.426 45.8422C113.447 45.8253 113.462 45.7999 113.471 45.7702C113.579 45.3593 113.496 45.156 113.225 45.156C112.856 45.156 112.337 45.6473 111.663 46.6301H110.471C110.989 45.9057 111.566 45.2748 112.197 44.7284C112.832 44.1863 113.481 43.7669 114.142 43.479C114.807 43.1909 115.438 43.0469 116.045 43.0469C116.463 43.0469 116.746 43.1019 116.889 43.2205C117.028 43.335 117.063 43.5382 116.985 43.8346C116.898 44.1651 116.665 44.6648 116.285 45.334C116.92 44.7919 117.427 44.3938 117.808 44.1397C118.189 43.8855 118.613 43.6568 119.091 43.4534C119.708 43.1823 120.295 43.0469 120.855 43.0469C121.885 43.0469 122.244 43.6484 121.927 44.8511C121.795 45.3511 121.593 45.8591 121.325 46.3758C120.272 48.5233 118.971 50.2768 117.418 51.6363C116.717 52.2332 116.078 52.6993 115.498 53.0337C114.954 53.3641 114.477 53.6101 114.059 53.7666C113.643 53.9275 113.077 54.0799 112.364 54.2323L109.959 59.8698L106.922 60.2ZM113.013 52.8305C113.588 52.7883 114.043 52.6359 114.374 52.3774C115.205 51.7165 116.247 50.1412 117.503 47.6464C117.869 46.9476 118.145 46.2869 118.334 45.6644L118.361 45.5627C118.499 45.0375 118.467 44.7748 118.259 44.7748C118.153 44.7748 117.974 44.8598 117.714 45.0291C117.5 45.1774 117.233 45.4188 116.91 45.7449C116.181 46.5156 115.714 47.1341 115.506 47.6001L113.013 52.8305Z" fill="#2B2A29"/>
<path d="M123.439 46.7299H122.218C124.286 44.1886 126.241 42.918 128.076 42.918C128.826 42.918 129.128 43.1891 128.985 43.7313C128.956 43.8415 128.892 44.0193 128.789 44.265C128.666 44.6039 128.588 44.8326 128.556 44.9554L126.537 50.8975L129.63 47.3652C130.554 46.2852 131.072 45.544 131.174 45.1541C131.231 44.9382 131.196 44.7647 131.061 44.6374C130.929 44.5107 130.716 44.4469 130.424 44.4469C130.276 44.4469 129.927 44.485 129.375 44.5698C129.971 44.0446 130.429 43.689 130.749 43.5025C131.314 43.1468 131.826 42.969 132.284 42.969C132.708 42.969 133.018 43.0792 133.215 43.2992C133.414 43.5239 133.465 43.8118 133.372 44.1676C133.227 44.7138 132.777 45.3957 132.017 46.2216L125.02 54.0486C124.337 54.8405 123.67 55.5733 123.013 56.2594C122.215 57.0853 121.36 57.7885 120.449 58.3685C119.094 59.2158 117.863 59.6393 116.757 59.6393C116.227 59.6393 115.824 59.5629 115.553 59.4146C115.278 59.2663 115.112 59.0294 115.057 58.7074C114.998 58.3856 115.04 57.9535 115.184 57.4073L115.333 56.8397C115.445 57.026 115.545 57.1616 115.64 57.2377C115.728 57.3181 115.882 57.4073 116.103 57.5046C116.52 57.7078 117.011 57.8095 117.574 57.8095C118.329 57.8095 119.037 57.6655 119.694 57.3732C120.117 57.2124 120.571 56.9242 121.061 56.5135C121.529 56.1323 121.882 55.7765 122.117 55.4504C122.348 55.1202 122.591 54.6457 122.84 54.0231L125.336 45.7093L125.421 45.3829L125.476 45.1756C125.526 44.9892 125.481 44.9002 125.345 44.9002C125.172 44.9002 124.913 45.0611 124.567 45.3916C124.221 45.7218 123.846 46.1667 123.439 46.7299Z" fill="#2B2A29"/>
<path d="M147.646 42.8672L144.254 51.5877C144.186 51.7358 144.111 51.9561 144.034 52.244C143.957 52.5363 143.95 52.7439 144.012 52.8584C144.08 52.9726 144.225 53.0318 144.459 53.0318C144.709 53.0318 145.285 52.905 146.186 52.6549L145.744 53.7687C144.417 54.1584 143.229 54.3533 142.177 54.3533C141.542 54.3533 141.109 54.2898 140.884 54.1628C140.66 54.0316 140.591 53.8112 140.675 53.4937C140.7 53.4004 140.84 53.0276 141.097 52.3755L143.517 46.3739L138.101 53.0318L135.341 53.468L137.77 46.3739L131.486 55.6496C130.929 56.4752 130.396 57.0639 129.89 57.4113C129.386 57.7627 128.81 57.9364 128.162 57.9364C127.743 57.9364 127.431 57.8009 127.227 57.5256C127.083 57.3477 127.015 57.1274 127.016 56.8649C127.021 56.6026 127.101 56.1704 127.258 55.5773L127.313 55.2725C127.457 55.5435 127.611 55.7297 127.776 55.8314C127.937 55.9288 128.182 55.9798 128.5 55.9798C128.805 55.9798 129.065 55.9078 129.277 55.7638C129.492 55.6196 129.756 55.3445 130.071 54.9377L139.026 43.2484L141.673 42.8672L139.077 50.3891L144.951 43.2484L147.646 42.8672Z" fill="#2B2A29"/>
<path d="M151.581 49.3746L150.524 51.7634C150.364 52.0978 150.256 52.3774 150.199 52.5977C150.139 52.8221 150.237 52.9323 150.491 52.9323C150.966 52.9323 151.564 52.8221 152.284 52.5977C152.991 52.3903 153.667 52.0598 154.303 51.611C153.946 52.4664 153.67 52.9831 153.482 53.1652C153.327 53.3345 153 53.4828 152.502 53.6184C151.427 53.9191 150.244 54.131 148.948 54.2537C148.375 54.3046 147.86 54.33 147.402 54.33C147.169 54.33 147.015 54.2875 146.945 54.1986C146.87 54.114 146.864 53.9614 146.921 53.7454C146.975 53.538 147.105 53.1737 147.308 52.657C148.277 50.1877 149.308 48.1422 150.399 46.5242C150.89 45.7915 151.474 45.1519 152.149 44.597C152.824 44.0465 153.546 43.6231 154.309 43.3352C155.076 43.0429 155.841 42.8945 156.595 42.8945C157.867 42.8945 158.366 43.4112 158.093 44.4487C157.523 46.6132 155.352 48.2564 151.581 49.3746ZM152.038 48.3328C152.583 48.0999 153.027 47.8288 153.371 47.5194C153.678 47.223 153.994 46.8162 154.31 46.2914C154.63 45.766 154.84 45.3087 154.941 44.9232C155.065 44.4533 154.975 44.2159 154.675 44.2159C154.136 44.2159 153.609 44.8005 153.09 45.9652L152.038 48.3328Z" fill="#2B2A29"/>
<path d="M164.789 48.6357H162.526L160.073 53.7942L157.156 54.3281L161.099 46.0438C161.182 45.8361 161.242 45.6754 161.272 45.5609C161.361 45.222 161.283 45.0527 161.029 45.0527C160.651 45.0527 160.134 45.5353 159.474 46.4969H158.284C158.794 45.781 159.366 45.1541 160.002 44.6079C160.64 44.0657 161.289 43.6465 161.955 43.3542C162.624 43.0664 163.257 42.918 163.851 42.918C164.681 42.918 165.032 43.1636 164.902 43.655C164.885 43.7226 164.827 43.8922 164.721 44.1676L163.148 47.4161H165.365L167.309 43.3204L170.046 42.969L165.965 51.7825C165.803 52.1553 165.705 52.401 165.672 52.5239C165.592 52.8287 165.746 52.9811 166.132 52.9811C166.217 52.9811 166.417 52.9643 166.731 52.9305L167.672 52.7526L167.301 53.6631L164.444 54.0994L163.803 54.1967C163.552 54.2348 163.335 54.2518 163.157 54.2518C162.835 54.2518 162.63 54.2094 162.531 54.1203C162.435 54.0317 162.418 53.8706 162.478 53.6418L162.519 53.4894L164.789 48.6357Z" fill="#2B2A29"/>
<path d="M172.088 53.796L169.156 54.3046L172.784 46.5242C173.001 46.0838 173.144 45.7363 173.208 45.4907C173.277 45.2323 173.216 45.1054 173.03 45.1054C172.835 45.1054 172.593 45.2535 172.296 45.5586C171.996 45.8591 171.695 46.2785 171.385 46.812H170.265C170.68 46.126 171.198 45.4948 171.823 44.923C172.447 44.3556 173.097 43.9025 173.778 43.5679C174.459 43.2375 175.084 43.0681 175.653 43.0681C176.432 43.0681 176.744 43.3601 176.593 43.9366C176.501 44.2836 176.241 44.8849 175.811 45.7449C176.659 44.8129 177.322 44.1776 177.81 43.8346C178.539 43.3222 179.404 43.0681 180.404 43.0681C181.184 43.0681 181.501 43.3601 181.349 43.9366C181.257 44.2836 180.997 44.8849 180.567 45.7449C180.696 45.5922 180.858 45.4102 181.062 45.2028C181.609 44.6223 182.111 44.1651 182.566 43.8346C183.37 43.3097 184.211 43.0469 185.089 43.0469C186.059 43.0469 186.447 43.407 186.256 44.1353C186.192 44.3769 186.106 44.6057 185.994 44.8257L185.483 45.8931L182.752 51.7377L182.5 52.1953C182.461 52.28 182.423 52.3902 182.387 52.5257C182.326 52.7586 182.43 52.8771 182.706 52.8771C182.905 52.8771 183.128 52.8349 183.37 52.7545L184.025 52.5977L183.803 53.4446L180.813 54.0757C180.398 54.1563 179.98 54.1985 179.556 54.1985C179.103 54.1985 178.921 54.0207 179.014 53.6648C179.062 53.4828 179.174 53.2201 179.345 52.8771L182.506 46.3041C182.751 45.804 182.889 45.5076 182.915 45.4103C183.008 45.0545 182.903 44.8767 182.602 44.8767C182.207 44.8767 181.647 45.3001 180.914 46.1471C180.356 46.7698 179.754 47.7525 179.099 49.095L176.843 53.796L174.071 54.2792L177.807 46.2785C177.986 45.9057 178.107 45.605 178.165 45.3847C178.255 45.046 178.151 44.8767 177.846 44.8767C177.456 44.8767 176.899 45.3001 176.163 46.1471C175.583 46.8207 174.977 47.8032 174.344 49.095L172.088 53.796Z" fill="#2B2A29"/>
<path fill-rule="evenodd" clip-rule="evenodd" d="M120.721 13.9021C175.462 -0.682858 220.973 1.56426 225.388 20.0982C230.184 40.2302 184.676 71.9533 123.744 90.9543C62.8103 109.955 9.52581 109.039 4.72952 88.9065C2.19689 78.2748 13.6966 64.4108 34.0849 50.8948C18.7411 61.7957 10.3681 72.7085 12.4466 81.2618C16.785 99.1116 64.981 99.925 120.096 83.0777C175.21 66.2301 216.373 38.1021 212.034 20.2518C208.131 4.19162 168.724 1.92645 120.721 13.9021Z" fill="url(#paint0_linear_518_984)"/>
<path fill-rule="evenodd" clip-rule="evenodd" d="M24.8438 71.8777L46.8619 10.6259C47.9426 7.6196 97.7466 3.40625 108.866 20.6584C114.543 29.4667 97.204 34.5715 94.9499 35.0914C88.7879 36.5126 75.9261 38.6117 75.9261 38.6117C80.174 37.3842 110.486 30.9212 103.834 21.803C100.323 16.9901 91.8185 14.3506 81.1993 13.195C66.962 11.6455 53.2685 15.0776 52.7629 16.4343L32.9466 69.5897L24.8438 71.8777Z" fill="#E31E24"/>
<path d="M123.649 20.2617C125.229 20.2617 125.975 21.208 125.887 23.1052C125.822 24.5191 125.4 25.8967 124.624 27.2379C123.855 28.5789 122.818 29.7798 121.537 30.8454C120.25 31.9163 118.804 32.7584 117.203 33.3771C115.593 33.9954 113.982 34.3024 112.364 34.3024C111.915 34.3024 111.6 34.2242 111.425 34.063C111.25 33.9072 111.172 33.6316 111.19 33.2365C111.208 32.826 111.296 32.2646 111.45 31.5575C112.251 27.9032 113.5 25.2209 115.191 23.5056C115.63 23.0689 116.18 22.653 116.852 22.2527C117.525 21.8525 118.248 21.4992 119.029 21.2028C119.811 20.9012 120.597 20.6673 121.395 20.5062C122.193 20.3449 122.942 20.2617 123.649 20.2617ZM120.996 21.4211C120.287 21.4523 119.599 21.7069 118.93 22.1905C118.262 22.6738 117.724 23.2977 117.315 24.0721C116.818 25.117 116.384 26.1255 116.027 27.0924C115.19 29.5719 114.746 31.2977 114.7 32.2699C114.675 32.8156 114.936 33.0859 115.483 33.0859C115.878 33.0859 116.396 32.909 117.05 32.5557C117.705 32.2022 118.256 31.8018 118.718 31.3443C119.667 30.3829 120.477 29.1404 121.141 27.6123C121.805 26.0839 122.168 24.644 122.231 23.2925C122.289 22.0449 121.922 21.4211 121.14 21.4211H120.996ZM137.803 23.1364H137.339L137.353 22.8557C137.384 22.1697 136.754 21.8266 135.447 21.8266C133.753 21.8266 132.584 22.4295 131.943 23.6407C131.213 25.1222 130.407 27.4251 129.523 30.5596C129.23 31.646 129.083 32.3527 129.068 32.6855C129.058 32.9038 129.112 33.0548 129.237 33.1275C129.363 33.2002 129.62 33.2365 130 33.2365C130.023 33.2365 130.442 33.2106 131.273 33.1483C131.999 33.0599 133.15 32.8313 134.717 32.462L134.316 33.4289L133.074 33.6474L131.382 33.9333C130.974 34.0215 130.011 34.1465 128.491 34.3024C127.684 34.3437 127.166 34.3648 126.93 34.3648C126.406 34.3648 126.029 34.2971 125.815 34.1621C125.601 34.0268 125.497 33.8033 125.512 33.4913C125.52 33.3094 125.599 32.9248 125.755 32.3425C126.017 31.1261 126.394 29.8891 126.885 28.6258C127.688 26.3959 128.61 24.7065 129.667 23.5472C130.477 22.6477 131.536 21.9306 132.853 21.3899C134.178 20.8492 135.528 20.5789 136.918 20.5789C138.104 20.5789 138.686 20.8076 138.665 21.2704C138.662 21.3483 138.492 21.7329 138.156 22.4192C138.106 22.5077 137.988 22.7467 137.803 23.1364Z" fill="#E31E24"/>
</g>
<defs>
<linearGradient id="paint0_linear_518_984" x1="4.3828" y1="54.5023" x2="225.736" y2="54.5023" gradientUnits="userSpaceOnUse">
<stop stop-color="#898989"/>
<stop offset="0.180392" stop-color="#5B5B5B"/>
<stop offset="0.329412" stop-color="#D9DADA"/>
<stop offset="0.580392" stop-color="#9D9E9E"/>
<stop offset="0.901961" stop-color="#D9D9D9"/>
<stop offset="1" stop-color="#727271"/>
</linearGradient>
<clipPath id="clip0_518_984">
<rect width="231" height="109" fill="white"/>
</clipPath>
</defs>
</svg>
